<svg xmlns:xlink="http://www.w3.org/1999/xlink" xmlns="http://www.w3.org/2000/svg" class="css-ze2te4 css-qd6ojx" viewBox="0 0 83.33333333333331 63.33576822799213" width="110"  height="84" ><g transform="translate(-15.153887787388921, -5.617559868288879) scale(1.1363997746760064)" class="css-168kus5" fill="#37BCF8"><g xmlns="http://www.w3.org/2000/svg" fill="#37BCF8"><path d="M82.999,40.144H59.532c-4.447,0-8.064-3.618-8.064-8.065c0-4.447,3.617-8.067,8.064-8.067c3.684,0,6.895,2.486,7.812,6.044   c0.504,1.961,2.502,3.142,4.465,2.636c1.961-0.505,3.142-2.503,2.637-4.464c-1.752-6.799-7.885-11.549-14.913-11.549   c-8.49,0-15.398,6.909-15.398,15.4c0,8.491,6.908,15.398,15.398,15.398h23.467c2.024,0,3.666-1.641,3.666-3.666   S85.023,40.144,82.999,40.144z" fill="#37BCF8"></path><path d="M75.667,53.343H27.206c-3.605,0-6.537-2.932-6.537-6.535s2.932-6.536,6.537-6.536c3.602,0,6.533,2.932,6.533,6.536   c0,2.025,1.643,3.667,3.668,3.667c2.025,0,3.666-1.642,3.666-3.667c0-7.646-6.223-13.869-13.867-13.869   c-7.648,0-13.871,6.222-13.871,13.869s6.223,13.869,13.871,13.869h48.461c2.022,0,3.666-1.642,3.666-3.667   S77.689,53.343,75.667,53.343z" fill="#37BCF8"></path><path d="M36.476,30.107c0.994,0,1.982-0.402,2.707-1.194c1.365-1.495,1.262-3.814-0.234-5.18c-2.686-2.455-2.873-6.637-0.42-9.323   c1.172-1.283,2.775-2.042,4.51-2.138c2.021-0.111,3.57-1.841,3.457-3.863c-0.111-2.021-1.834-3.572-3.861-3.46   c-3.664,0.204-7.043,1.806-9.518,4.514c-5.184,5.671-4.785,14.501,0.885,19.684C34.704,29.789,35.593,30.107,36.476,30.107z" fill="#37BCF8"></path></g></g></svg>