<svg xmlns:xlink="http://www.w3.org/1999/xlink" xmlns="http://www.w3.org/2000/svg" width="890.5000000000001" height="152.57123969439223" viewBox="0 0 369.6666666666667 63.33576822799213" class="looka-1j8o68f"><defs id="SvgjsDefs4584"></defs><g id="SvgjsG4585" featurekey="symbolFeature-0" transform="matrix(1.1363997746760064,0,0,1.1363997746760064,-15.153887787388921,-5.617559868288879)" fill="#37BCF8"><g xmlns="http://www.w3.org/2000/svg" fill="#37BCF8"><path d="M82.999,40.144H59.532c-4.447,0-8.064-3.618-8.064-8.065c0-4.447,3.617-8.067,8.064-8.067c3.684,0,6.895,2.486,7.812,6.044   c0.504,1.961,2.502,3.142,4.465,2.636c1.961-0.505,3.142-2.503,2.637-4.464c-1.752-6.799-7.885-11.549-14.913-11.549   c-8.49,0-15.398,6.909-15.398,15.4c0,8.491,6.908,15.398,15.398,15.398h23.467c2.024,0,3.666-1.641,3.666-3.666   S85.023,40.144,82.999,40.144z" fill="#37BCF8"></path><path d="M75.667,53.343H27.206c-3.605,0-6.537-2.932-6.537-6.535s2.932-6.536,6.537-6.536c3.602,0,6.533,2.932,6.533,6.536   c0,2.025,1.643,3.667,3.668,3.667c2.025,0,3.666-1.642,3.666-3.667c0-7.646-6.223-13.869-13.867-13.869   c-7.648,0-13.871,6.222-13.871,13.869s6.223,13.869,13.871,13.869h48.461c2.022,0,3.666-1.642,3.666-3.667   S77.689,53.343,75.667,53.343z" fill="#37BCF8"></path><path d="M36.476,30.107c0.994,0,1.982-0.402,2.707-1.194c1.365-1.495,1.262-3.814-0.234-5.18c-2.686-2.455-2.873-6.637-0.42-9.323   c1.172-1.283,2.775-2.042,4.51-2.138c2.021-0.111,3.57-1.841,3.457-3.863c-0.111-2.021-1.834-3.572-3.861-3.46   c-3.664,0.204-7.043,1.806-9.518,4.514c-5.184,5.671-4.785,14.501,0.885,19.684C34.704,29.789,35.593,30.107,36.476,30.107z" fill="#37BCF8"></path></g></g><g id="SvgjsG4586" featurekey="nameFeature-0" transform="matrix(1.6311882110710654,0,0,1.6311882110710654,100.78158459296738,-10.551585524474017)" fill="#FFFFFF"><path d="M12.12 40.56 c-6.2 0 -10.76 -4.64 -10.76 -10.72 c0 -6.04 4.56 -10.64 10.72 -10.64 c5.6 0 9.08 3.6 9.88 6.64 l-4.92 1.4 c-0.44 -1.68 -2.32 -3.36 -4.96 -3.36 c-3.36 0 -5.52 2.76 -5.52 5.96 c0 3.16 2.16 6 5.52 6 c2.64 0 4.52 -1.56 4.96 -3.24 l4.92 1.36 c-0.8 3.08 -4.28 6.6 -9.84 6.6 z M40.08 19.76 l5.28 0 l0 20.24 l-5.28 0 l0 -2.56 c-1.36 1.8 -3.56 3.12 -6.48 3.12 c-5.32 0 -8 -3.56 -8 -9 l0 -11.8 l5.28 0 l0 10.8 c0 3.08 1.4 5.08 4.32 5.08 c3 0 4.88 -2.32 4.88 -5.92 l0 -9.96 z M55.84 22.76 c1.2 -2.36 3.52 -3.72 6.68 -3.28 l0 4.96 c-4.32 -0.68 -6.68 1.32 -6.68 6.76 l0 8.8 l-5.28 0 l0 -20.24 l5.28 0 l0 3 z M65.96 40 l0 -29.2 l5.28 0 l0 29.2 l-5.28 0 z M100.68 19.76 l5.48 0 l-7 20.24 l-4.92 0 l-4.16 -12.76 l-4.16 12.76 l-4.96 0 l-6.96 -20.24 l5.48 0 l4.2 13.56 l4.16 -13.56 l4.44 0 l4.2 13.56 z M111.60000000000001 16.92 c-1.76 0 -3.16 -1.36 -3.16 -3.12 c0 -1.68 1.4 -3.04 3.16 -3.04 s3.16 1.36 3.16 3.04 c0 1.76 -1.4 3.12 -3.16 3.12 z M108.88000000000001 40 l0 -20.24 l5.32 0 l0 20.24 l-5.32 0 z M131.28 19.2 c5.28 0 7.96 3.56 7.96 8.96 l0 11.84 l-5.28 0 l0 -10.84 c0 -3.08 -1.4 -5.04 -4.32 -5.04 c-2.96 0 -4.88 2.32 -4.88 5.88 l0 10 l-5.28 0 l0 -20.24 l5.28 0 l0 2.56 c1.4 -1.8 3.6 -3.12 6.52 -3.12 z M159.52 10.8 l5.32 0 l0 29.2 l-5.32 0 l0 -2.48 c-1.44 1.84 -3.68 3.04 -6.52 3.04 c-5.6 0 -10 -4.56 -10 -10.68 c0 -6.16 4.4 -10.68 10 -10.68 c2.84 0 5.08 1.16 6.52 3 l0 -11.4 z M153.92000000000002 35.84 c3.2 0 5.76 -2.48 5.76 -6 c0 -3.48 -2.56 -5.92 -5.76 -5.92 c-3.32 0 -5.68 2.44 -5.68 5.92 c0 3.52 2.36 6 5.68 6 z" fill="#000"></path></g></svg>
