<?xml version="1.0" standalone="no"?>
<!DOCTYPE svg PUBLIC "-//W3C//DTD SVG 20010904//EN"
 "http://www.w3.org/TR/2001/REC-SVG-20010904/DTD/svg10.dtd">
<svg version="1.0" xmlns="http://www.w3.org/2000/svg"
 width="880.000000pt" height="880.000000pt" viewBox="0 0 880.000000 880.000000"
 preserveAspectRatio="xMidYMid meet">
<metadata>
Created by potrace 1.14, written by Peter Selinger 2001-2017
</metadata>
<g transform="translate(0.000000,880.000000) scale(0.100000,-0.100000)"
fill="#000000" stroke="none">
<path d="M3487 7744 c-1 -1 -29 -5 -62 -8 -61 -7 -90 -12 -135 -21 -23 -5 -70
-14 -95 -19 -5 -1 -14 -4 -20 -8 -5 -3 -26 -9 -45 -13 -45 -9 -244 -87 -248
-97 -2 -4 -9 -8 -16 -8 -13 0 -196 -107 -206 -120 -3 -3 -22 -16 -42 -29 -21
-12 -38 -26 -38 -30 0 -4 -12 -14 -27 -23 -88 -53 -311 -309 -379 -433 -50
-93 -92 -176 -103 -205 -8 -19 -20 -48 -26 -65 -33 -79 -64 -191 -81 -290 -26
-154 -33 -312 -20 -450 9 -93 29 -210 51 -295 13 -51 39 -127 46 -134 5 -6 9
-16 9 -24 0 -20 86 -196 133 -272 91 -145 276 -359 346 -398 87 -50 96 -53
161 -69 42 -10 132 -8 183 4 84 19 155 58 214 118 42 43 101 134 109 168 1 4
2 8 4 10 4 5 10 55 13 112 7 134 -36 239 -143 347 -40 40 -84 91 -98 113 -15
22 -29 42 -33 45 -3 3 -15 23 -26 45 -83 160 -113 322 -88 482 6 40 9 73 7 73
-2 0 1 6 7 14 6 8 11 18 10 22 -1 5 1 18 5 29 4 11 13 34 18 50 15 44 90 175
100 175 4 0 8 5 8 11 0 24 148 157 225 203 81 47 211 95 275 101 196 18 264
43 357 129 59 55 121 156 131 214 7 43 8 174 0 210 -22 108 -135 246 -242 295
-32 15 -60 26 -64 25 -4 -1 -23 2 -42 6 -29 7 -128 14 -133 10z"/>
<path d="M5458 6334 c-2 -1 -39 -5 -83 -8 -44 -2 -89 -7 -100 -9 -11 -3 -40
-8 -65 -12 -65 -11 -67 -11 -154 -35 -143 -38 -338 -122 -457 -195 -76 -47
-124 -80 -127 -87 -2 -5 -10 -8 -17 -8 -7 0 -15 -3 -17 -7 -1 -5 -25 -26 -53
-48 -27 -22 -63 -53 -80 -69 -16 -15 -37 -33 -45 -40 -34 -26 -149 -158 -205
-236 -22 -30 -42 -57 -45 -60 -8 -7 -62 -98 -80 -136 -8 -17 -20 -37 -26 -45
-14 -18 -88 -193 -113 -267 -78 -231 -107 -477 -88 -732 37 -481 272 -941 647
-1262 97 -83 246 -181 367 -242 144 -72 363 -147 473 -162 19 -2 46 -7 60 -9
60 -12 90 -16 165 -21 44 -3 85 -5 90 -5 37 1 145 0 170 0 17 -1 42 0 58 0 15
1 39 1 55 2 34 1 70 1 105 0 15 -1 39 -1 55 -2 34 -1 70 -1 105 0 15 1 39 1
55 2 36 1 71 1 102 0 14 -1 33 -1 43 -1 9 0 38 0 65 0 26 0 58 1 72 3 14 1 40
0 58 -4 17 -4 34 -3 37 1 3 4 20 5 38 1 18 -5 41 -6 52 -4 11 2 41 4 68 3 26
0 54 0 62 0 8 0 22 0 30 0 8 0 36 0 63 0 26 0 58 1 72 3 14 1 40 0 58 -4 17
-4 34 -3 37 1 3 4 19 4 37 1 18 -4 50 -4 70 -1 20 4 41 4 46 1 6 -3 44 -4 85
-1 41 3 91 2 110 -1 20 -3 41 -3 48 1 6 4 26 4 45 0 19 -4 36 -4 39 0 3 4 20
5 38 1 18 -5 41 -6 52 -4 11 2 41 4 68 3 26 0 54 0 62 0 8 0 22 0 30 0 8 0 36
0 63 0 26 0 58 1 72 3 14 1 40 0 58 -4 17 -4 35 -3 38 2 3 5 10 7 15 3 6 -3
34 -5 62 -4 50 1 63 1 90 -1 6 0 53 -1 102 0 50 0 97 0 105 0 102 -4 242 26
262 55 4 6 8 7 8 3 0 -11 77 48 114 87 125 135 149 342 59 512 -48 90 -176
188 -273 209 -47 11 -82 16 -97 16 -24 -1 -200 -3 -230 -2 -130 3 -194 2 -202
-3 -5 -4 -12 -2 -16 3 -3 6 -12 8 -19 5 -18 -7 -166 -10 -166 -4 0 3 -29 3
-65 0 -36 -3 -65 -3 -65 0 0 3 -26 4 -57 3 -32 -2 -74 -3 -93 -3 -19 0 -44 0
-55 -1 -11 0 -33 0 -50 0 -16 0 -59 0 -95 0 -36 0 -71 0 -77 0 -130 3 -194 2
-202 -3 -5 -4 -12 -2 -16 3 -3 6 -12 8 -19 5 -18 -7 -166 -10 -166 -4 0 3 -29
3 -65 0 -36 -3 -65 -3 -65 0 0 3 -26 4 -57 3 -32 -2 -74 -3 -93 -3 -19 0 -44
0 -55 -1 -11 0 -33 0 -50 0 -16 0 -59 0 -95 0 -36 0 -71 0 -77 0 -130 3 -194
2 -202 -3 -5 -4 -12 -2 -16 3 -3 6 -12 8 -19 5 -18 -7 -166 -10 -166 -4 0 3
-29 3 -65 0 -36 -3 -65 -3 -65 0 0 3 -55 5 -123 5 -142 0 -196 6 -292 34 -73
21 -188 71 -193 84 -2 4 -9 7 -15 7 -13 0 -89 52 -145 98 -93 76 -184 191
-239 302 -21 41 -38 77 -39 80 0 3 -4 14 -8 25 -39 101 -64 247 -60 350 2 64
15 178 21 187 2 5 6 16 8 25 7 38 47 146 74 203 52 107 169 251 269 332 31 25
166 106 196 118 14 5 38 15 54 22 15 6 32 12 37 14 6 1 37 9 70 18 131 36 269
39 440 12 103 -17 259 -88 373 -169 165 -119 287 -296 361 -525 48 -151 118
-239 236 -296 67 -33 81 -37 178 -41 76 -4 166 14 195 37 6 6 12 7 12 4 0 -13
92 56 131 98 40 41 76 107 102 182 20 60 14 185 -13 274 -13 41 -24 77 -24 80
-4 22 -79 193 -118 269 -92 175 -190 306 -342 456 -55 55 -130 122 -166 148
-36 27 -73 54 -82 62 -9 7 -36 24 -60 37 -24 13 -44 26 -46 31 -2 4 -8 7 -14
7 -5 0 -22 8 -36 18 -59 41 -318 144 -417 167 -11 2 -39 9 -63 15 -23 5 -59
13 -80 16 -20 3 -48 7 -62 10 -69 13 -343 27 -352 18z"/>
<path d="M1618 4384 c-2 -1 -41 -4 -88 -8 -162 -11 -299 -40 -435 -92 -11 -4
-22 -8 -25 -9 -3 0 -32 -13 -65 -28 -33 -15 -62 -27 -65 -26 -3 1 -30 -13 -60
-32 -30 -19 -68 -41 -83 -49 -53 -27 -242 -176 -310 -245 -37 -37 -67 -70 -67
-72 0 -2 -12 -16 -26 -31 -47 -50 -214 -297 -214 -317 0 -2 -15 -36 -34 -77
-30 -66 -75 -183 -80 -212 -2 -6 -8 -30 -15 -54 -7 -24 -14 -55 -16 -70 -2
-15 -6 -36 -8 -47 -16 -73 -21 -141 -21 -295 1 -96 4 -195 8 -220 17 -120 53
-268 67 -284 5 -6 9 -20 9 -31 0 -12 3 -25 7 -29 4 -3 8 -12 9 -19 6 -44 167
-348 194 -367 3 -3 11 -12 16 -21 37 -66 233 -268 334 -346 212 -163 422 -258
708 -318 12 -3 30 -7 40 -9 9 -2 55 -7 102 -12 117 -10 5993 -12 6055 -1 94
16 210 81 256 144 13 19 32 43 41 54 54 66 81 242 54 347 -38 141 -141 252
-285 305 -56 20 -60 20 -3041 22 -1642 1 -3005 5 -3030 9 -68 12 -70 13 -138
36 -199 66 -372 222 -460 412 -69 149 -88 353 -48 511 12 48 20 87 17 87 -4 0
-1 4 4 8 6 4 19 27 30 52 49 116 155 239 273 319 54 37 222 117 222 106 0 -2
15 1 33 6 68 21 192 29 280 18 266 -35 499 -207 612 -452 48 -104 63 -167 71
-292 13 -195 65 -305 189 -394 25 -18 45 -29 45 -24 0 4 4 3 8 -3 19 -28 108
-49 207 -48 95 0 104 2 176 37 126 61 204 152 240 283 38 136 5 425 -73 654
-32 93 -125 293 -139 298 -5 2 -9 9 -9 15 0 13 -66 109 -128 187 -57 71 -157
174 -218 225 -26 22 -53 45 -59 50 -6 6 -18 15 -26 20 -9 6 -49 32 -90 59
-191 128 -438 222 -659 252 -98 13 -285 25 -292 18z"/>
</g>
</svg>
